<svg width="4400" height="568" xmlns="http://www.w3.org/2000/svg" overflow="hidden"><defs><clipPath id="a"><path d="M0 807h4400v568H0z"/></clipPath></defs><g clip-path="url(#a)" transform="translate(0 -807)"><path d="M4400 1374.97H0V843.099l91.667-10.992c91.666-11.907 275-32.669 458.333-22.288 183.333 10.381 366.667 56.179 550 99.84 183.33 43.661 366.67 89.154 550 77.552 183.33-10.992 366.67-77.552 550-110.832 183.33-33.28 366.67-33.28 550 44.272 183.33 78.467 268.89 139.229 452.22 228.379 364.71 177.36 722.37-180.138 1090.1-163.773 22.16.977 107.68-.183 107.68 36.363V1375z" fill="#F5F5F5" fill-rule="evenodd"/></g></svg>